<mxfile host="app.diagrams.net" agent="Mozilla/5.0 (Windows NT 10.0; Win64; x64) AppleWebKit/537.36 (KHTML, like Gecko) Chrome/129.0.0.0 Safari/537.36 Edg/129.0.0.0" version="24.7.17">
  <diagram name="Page-1" id="4VT87U2LmnknI6-ICYnN">
    <mxGraphModel dx="1426" dy="791" grid="1" gridSize="10" guides="1" tooltips="1" connect="1" arrows="1" fold="1" page="1" pageScale="1" pageWidth="850" pageHeight="1100" math="0" shadow="0">
      <root>
        <mxCell id="0" />
        <mxCell id="1" parent="0" />
        <mxCell id="RIg5smvJg7M8UyumoNu6-1" value="Termék" style="rounded=0;whiteSpace=wrap;html=1;fillColor=#dae8fc;strokeColor=#6c8ebf;" vertex="1" parent="1">
          <mxGeometry x="150" y="120" width="120" height="60" as="geometry" />
        </mxCell>
        <mxCell id="RIg5smvJg7M8UyumoNu6-2" value="Gyár" style="rounded=0;whiteSpace=wrap;html=1;fillColor=#dae8fc;strokeColor=#6c8ebf;" vertex="1" parent="1">
          <mxGeometry x="530" y="120" width="120" height="60" as="geometry" />
        </mxCell>
        <mxCell id="RIg5smvJg7M8UyumoNu6-7" value="&lt;u&gt;tkód&lt;/u&gt;" style="ellipse;whiteSpace=wrap;html=1;fillColor=#fff2cc;strokeColor=#d6b656;" vertex="1" parent="1">
          <mxGeometry x="30" y="240" width="110" height="60" as="geometry" />
        </mxCell>
        <mxCell id="RIg5smvJg7M8UyumoNu6-9" value="név" style="ellipse;whiteSpace=wrap;html=1;fillColor=#fff2cc;strokeColor=#d6b656;" vertex="1" parent="1">
          <mxGeometry x="10" y="120" width="100" height="60" as="geometry" />
        </mxCell>
        <mxCell id="RIg5smvJg7M8UyumoNu6-19" value="név" style="ellipse;whiteSpace=wrap;html=1;fillColor=#fff2cc;strokeColor=#d6b656;" vertex="1" parent="1">
          <mxGeometry x="690" y="120" width="110" height="60" as="geometry" />
        </mxCell>
        <mxCell id="RIg5smvJg7M8UyumoNu6-20" value="telephely" style="ellipse;whiteSpace=wrap;html=1;fillColor=#fff2cc;strokeColor=#d6b656;" vertex="1" parent="1">
          <mxGeometry x="660" y="260" width="120" height="60" as="geometry" />
        </mxCell>
        <mxCell id="RIg5smvJg7M8UyumoNu6-23" value="" style="endArrow=none;html=1;rounded=0;entryX=0.5;entryY=1;entryDx=0;entryDy=0;exitX=0.673;exitY=0.083;exitDx=0;exitDy=0;exitPerimeter=0;" edge="1" parent="1" source="RIg5smvJg7M8UyumoNu6-7" target="RIg5smvJg7M8UyumoNu6-1">
          <mxGeometry width="50" height="50" relative="1" as="geometry">
            <mxPoint x="60" y="260" as="sourcePoint" />
            <mxPoint x="110" y="210" as="targetPoint" />
          </mxGeometry>
        </mxCell>
        <mxCell id="RIg5smvJg7M8UyumoNu6-26" value="&lt;u&gt;adószám&lt;/u&gt;" style="ellipse;whiteSpace=wrap;html=1;fillColor=#fff2cc;strokeColor=#d6b656;" vertex="1" parent="1">
          <mxGeometry x="410" y="260" width="120" height="60" as="geometry" />
        </mxCell>
        <mxCell id="RIg5smvJg7M8UyumoNu6-29" value="" style="endArrow=none;html=1;rounded=0;exitX=0.44;exitY=-0.033;exitDx=0;exitDy=0;exitPerimeter=0;entryX=0.5;entryY=1;entryDx=0;entryDy=0;" edge="1" parent="1" source="RIg5smvJg7M8UyumoNu6-49" target="RIg5smvJg7M8UyumoNu6-1">
          <mxGeometry width="50" height="50" relative="1" as="geometry">
            <mxPoint x="263.03999999999996" y="251.03999999999996" as="sourcePoint" />
            <mxPoint x="249" y="190" as="targetPoint" />
            <Array as="points" />
          </mxGeometry>
        </mxCell>
        <mxCell id="RIg5smvJg7M8UyumoNu6-30" value="" style="endArrow=none;html=1;rounded=0;" edge="1" parent="1">
          <mxGeometry width="50" height="50" relative="1" as="geometry">
            <mxPoint x="490" y="260" as="sourcePoint" />
            <mxPoint x="590" y="180" as="targetPoint" />
          </mxGeometry>
        </mxCell>
        <mxCell id="RIg5smvJg7M8UyumoNu6-32" value="" style="endArrow=none;html=1;rounded=0;entryX=0.5;entryY=1;entryDx=0;entryDy=0;exitX=0.425;exitY=0.017;exitDx=0;exitDy=0;exitPerimeter=0;" edge="1" parent="1" source="RIg5smvJg7M8UyumoNu6-20" target="RIg5smvJg7M8UyumoNu6-2">
          <mxGeometry width="50" height="50" relative="1" as="geometry">
            <mxPoint x="710" y="250" as="sourcePoint" />
            <mxPoint x="640" y="180" as="targetPoint" />
          </mxGeometry>
        </mxCell>
        <mxCell id="RIg5smvJg7M8UyumoNu6-35" value="t-gy" style="rhombus;whiteSpace=wrap;html=1;fillColor=#f8cecc;strokeColor=#b85450;" vertex="1" parent="1">
          <mxGeometry x="350" y="120" width="110" height="60" as="geometry" />
        </mxCell>
        <mxCell id="RIg5smvJg7M8UyumoNu6-36" value="" style="endArrow=none;html=1;rounded=0;exitX=0.425;exitY=0;exitDx=0;exitDy=0;exitPerimeter=0;" edge="1" parent="1" target="RIg5smvJg7M8UyumoNu6-37">
          <mxGeometry width="50" height="50" relative="1" as="geometry">
            <mxPoint x="590.46" y="120" as="sourcePoint" />
            <mxPoint x="590" y="80" as="targetPoint" />
          </mxGeometry>
        </mxCell>
        <mxCell id="RIg5smvJg7M8UyumoNu6-37" value="postai cím" style="ellipse;whiteSpace=wrap;html=1;fillColor=#fff2cc;strokeColor=#d6b656;" vertex="1" parent="1">
          <mxGeometry x="550" y="60" width="80" height="40" as="geometry" />
        </mxCell>
        <mxCell id="RIg5smvJg7M8UyumoNu6-38" value="" style="endArrow=doubleBlock;html=1;rounded=0;entryX=1;entryY=0.5;entryDx=0;entryDy=0;endFill=1;" edge="1" parent="1" target="RIg5smvJg7M8UyumoNu6-1">
          <mxGeometry width="50" height="50" relative="1" as="geometry">
            <mxPoint x="350" y="149.5" as="sourcePoint" />
            <mxPoint x="290" y="149.5" as="targetPoint" />
          </mxGeometry>
        </mxCell>
        <mxCell id="RIg5smvJg7M8UyumoNu6-39" value="" style="endArrow=classic;html=1;rounded=0;entryX=0;entryY=0.5;entryDx=0;entryDy=0;" edge="1" parent="1" target="RIg5smvJg7M8UyumoNu6-2">
          <mxGeometry width="50" height="50" relative="1" as="geometry">
            <mxPoint x="460" y="149.5" as="sourcePoint" />
            <mxPoint x="520" y="150" as="targetPoint" />
          </mxGeometry>
        </mxCell>
        <mxCell id="RIg5smvJg7M8UyumoNu6-41" value="ir.szam" style="ellipse;whiteSpace=wrap;html=1;fillColor=#fff2cc;strokeColor=#d6b656;" vertex="1" parent="1">
          <mxGeometry x="640" y="20" width="50" height="40" as="geometry" />
        </mxCell>
        <mxCell id="RIg5smvJg7M8UyumoNu6-44" value="" style="endArrow=none;html=1;rounded=0;entryX=0;entryY=1;entryDx=0;entryDy=0;exitX=0.5;exitY=0;exitDx=0;exitDy=0;" edge="1" parent="1" source="RIg5smvJg7M8UyumoNu6-37" target="RIg5smvJg7M8UyumoNu6-41">
          <mxGeometry width="50" height="50" relative="1" as="geometry">
            <mxPoint x="610" y="60" as="sourcePoint" />
            <mxPoint x="640" y="30" as="targetPoint" />
            <Array as="points" />
          </mxGeometry>
        </mxCell>
        <mxCell id="RIg5smvJg7M8UyumoNu6-45" value="házsz." style="ellipse;whiteSpace=wrap;html=1;fillColor=#fff2cc;strokeColor=#d6b656;" vertex="1" parent="1">
          <mxGeometry x="580" y="2.5" width="60" height="40" as="geometry" />
        </mxCell>
        <mxCell id="RIg5smvJg7M8UyumoNu6-46" value="utca" style="ellipse;whiteSpace=wrap;html=1;fillColor=#fff2cc;strokeColor=#d6b656;" vertex="1" parent="1">
          <mxGeometry x="470" y="20" width="50" height="40" as="geometry" />
        </mxCell>
        <mxCell id="RIg5smvJg7M8UyumoNu6-47" value="" style="endArrow=none;html=1;rounded=0;entryX=1;entryY=1;entryDx=0;entryDy=0;exitX=0.5;exitY=0;exitDx=0;exitDy=0;" edge="1" parent="1" source="RIg5smvJg7M8UyumoNu6-37" target="RIg5smvJg7M8UyumoNu6-46">
          <mxGeometry width="50" height="50" relative="1" as="geometry">
            <mxPoint x="570" y="70" as="sourcePoint" />
            <mxPoint x="530" y="40" as="targetPoint" />
          </mxGeometry>
        </mxCell>
        <mxCell id="RIg5smvJg7M8UyumoNu6-48" value="" style="endArrow=none;html=1;rounded=0;exitX=0.5;exitY=1;exitDx=0;exitDy=0;" edge="1" parent="1" source="RIg5smvJg7M8UyumoNu6-45">
          <mxGeometry width="50" height="50" relative="1" as="geometry">
            <mxPoint x="590" y="50" as="sourcePoint" />
            <mxPoint x="590" y="60" as="targetPoint" />
          </mxGeometry>
        </mxCell>
        <mxCell id="RIg5smvJg7M8UyumoNu6-49" value="ear" style="ellipse;whiteSpace=wrap;html=1;fillColor=#fff2cc;strokeColor=#d6b656;" vertex="1" parent="1">
          <mxGeometry x="255" y="240" width="100" height="60" as="geometry" />
        </mxCell>
        <mxCell id="RIg5smvJg7M8UyumoNu6-50" value="" style="ellipse;whiteSpace=wrap;html=1;fillColor=#fff2cc;strokeColor=#d6b656;" vertex="1" parent="1">
          <mxGeometry x="165" y="20" width="90" height="60" as="geometry" />
        </mxCell>
        <mxCell id="RIg5smvJg7M8UyumoNu6-51" value="csomag&lt;div&gt;db&lt;/div&gt;" style="ellipse;whiteSpace=wrap;html=1;fillColor=#fff2cc;strokeColor=#030201;" vertex="1" parent="1">
          <mxGeometry x="182.5" y="30" width="55" height="40" as="geometry" />
        </mxCell>
        <mxCell id="RIg5smvJg7M8UyumoNu6-52" value="" style="endArrow=none;html=1;rounded=0;exitX=0.5;exitY=0;exitDx=0;exitDy=0;" edge="1" parent="1" source="RIg5smvJg7M8UyumoNu6-1">
          <mxGeometry width="50" height="50" relative="1" as="geometry">
            <mxPoint x="210" y="120" as="sourcePoint" />
            <mxPoint x="210" y="80" as="targetPoint" />
          </mxGeometry>
        </mxCell>
        <mxCell id="RIg5smvJg7M8UyumoNu6-54" value="város" style="ellipse;whiteSpace=wrap;html=1;fillColor=#fff2cc;strokeColor=#d6b656;" vertex="1" parent="1">
          <mxGeometry x="520" y="5" width="60" height="35" as="geometry" />
        </mxCell>
        <mxCell id="RIg5smvJg7M8UyumoNu6-56" value="" style="endArrow=none;html=1;rounded=0;entryX=0.667;entryY=0.943;entryDx=0;entryDy=0;entryPerimeter=0;" edge="1" parent="1" target="RIg5smvJg7M8UyumoNu6-54">
          <mxGeometry width="50" height="50" relative="1" as="geometry">
            <mxPoint x="590" y="60" as="sourcePoint" />
            <mxPoint x="540" y="30" as="targetPoint" />
          </mxGeometry>
        </mxCell>
        <mxCell id="RIg5smvJg7M8UyumoNu6-57" value="" style="endArrow=none;html=1;rounded=0;" edge="1" parent="1">
          <mxGeometry width="50" height="50" relative="1" as="geometry">
            <mxPoint x="110" y="150" as="sourcePoint" />
            <mxPoint x="150" y="150" as="targetPoint" />
          </mxGeometry>
        </mxCell>
        <mxCell id="RIg5smvJg7M8UyumoNu6-59" value="t-a" style="rhombus;whiteSpace=wrap;html=1;fillColor=#f8cecc;strokeColor=#b85450;" vertex="1" parent="1">
          <mxGeometry x="170" y="360" width="80" height="60" as="geometry" />
        </mxCell>
        <mxCell id="RIg5smvJg7M8UyumoNu6-60" value="" style="endArrow=doubleBlock;html=1;rounded=0;entryX=0.5;entryY=1;entryDx=0;entryDy=0;endFill=1;exitX=0.5;exitY=0;exitDx=0;exitDy=0;" edge="1" parent="1" source="RIg5smvJg7M8UyumoNu6-59" target="RIg5smvJg7M8UyumoNu6-1">
          <mxGeometry width="50" height="50" relative="1" as="geometry">
            <mxPoint x="210" y="330" as="sourcePoint" />
            <mxPoint x="260" y="310" as="targetPoint" />
            <Array as="points" />
          </mxGeometry>
        </mxCell>
        <mxCell id="RIg5smvJg7M8UyumoNu6-62" value="" style="endArrow=doubleBlock;html=1;rounded=0;endFill=1;entryX=0.042;entryY=0.5;entryDx=0;entryDy=0;entryPerimeter=0;" edge="1" parent="1" target="RIg5smvJg7M8UyumoNu6-63">
          <mxGeometry width="50" height="50" relative="1" as="geometry">
            <mxPoint x="250" y="390" as="sourcePoint" />
            <mxPoint x="360" y="390" as="targetPoint" />
          </mxGeometry>
        </mxCell>
        <mxCell id="RIg5smvJg7M8UyumoNu6-63" value="Alkatrész" style="rounded=0;whiteSpace=wrap;html=1;fillColor=#dae8fc;strokeColor=#6c8ebf;" vertex="1" parent="1">
          <mxGeometry x="360" y="360" width="110" height="60" as="geometry" />
        </mxCell>
        <mxCell id="RIg5smvJg7M8UyumoNu6-64" value="&lt;u&gt;akód&lt;/u&gt;" style="ellipse;whiteSpace=wrap;html=1;fillColor=#fff2cc;strokeColor=#d6b656;" vertex="1" parent="1">
          <mxGeometry x="300" y="450" width="85" height="70" as="geometry" />
        </mxCell>
        <mxCell id="RIg5smvJg7M8UyumoNu6-65" value="név" style="ellipse;whiteSpace=wrap;html=1;fillColor=#fff2cc;strokeColor=#d6b656;" vertex="1" parent="1">
          <mxGeometry x="425" y="450" width="85" height="70" as="geometry" />
        </mxCell>
        <mxCell id="RIg5smvJg7M8UyumoNu6-66" value="" style="endArrow=none;html=1;rounded=0;entryX=0.5;entryY=1;entryDx=0;entryDy=0;" edge="1" parent="1" target="RIg5smvJg7M8UyumoNu6-63">
          <mxGeometry width="50" height="50" relative="1" as="geometry">
            <mxPoint x="350" y="450" as="sourcePoint" />
            <mxPoint x="420" y="420" as="targetPoint" />
          </mxGeometry>
        </mxCell>
        <mxCell id="RIg5smvJg7M8UyumoNu6-67" value="" style="endArrow=none;html=1;rounded=0;exitX=0.5;exitY=0;exitDx=0;exitDy=0;entryX=0.5;entryY=1;entryDx=0;entryDy=0;" edge="1" parent="1" source="RIg5smvJg7M8UyumoNu6-65" target="RIg5smvJg7M8UyumoNu6-63">
          <mxGeometry width="50" height="50" relative="1" as="geometry">
            <mxPoint x="450" y="450" as="sourcePoint" />
            <mxPoint x="420" y="420" as="targetPoint" />
          </mxGeometry>
        </mxCell>
        <mxCell id="RIg5smvJg7M8UyumoNu6-68" value="" style="endArrow=none;html=1;rounded=0;" edge="1" parent="1">
          <mxGeometry width="50" height="50" relative="1" as="geometry">
            <mxPoint x="650" y="150" as="sourcePoint" />
            <mxPoint x="690" y="150" as="targetPoint" />
          </mxGeometry>
        </mxCell>
      </root>
    </mxGraphModel>
  </diagram>
</mxfile>
